<?xml version="1.0" encoding="utf-8"?>
<!-- Generator: Adobe Illustrator 21.1.0, SVG Export Plug-In . SVG Version: 6.00 Build 0)  -->
<svg version="1.1" id="Layer_1" xmlns="http://www.w3.org/2000/svg" xmlns:xlink="http://www.w3.org/1999/xlink" x="0px" y="0px"
	 viewBox="0 0 100 100" style="enable-background:new 0 0 100 100;" xml:space="preserve">
<style type="text/css">
	.st0{fill:#2364FF;}
</style>
<g>
	<path class="st0" d="M85.6,44.4h-1.9l1.3,3.5c0.9,2.5,1.7,6.6,1.7,9.3v19.1c0,3.1-2.5,5.6-5.6,5.6s-5.6-2.5-5.6-5.6v-3.1
		c-8.1,1.1-16.7,1.6-25.6,1.6c-8.9,0-17.5-0.6-25.6-1.6v3.1c0,3.1-2.5,5.6-5.6,5.6s-5.6-2.5-5.6-5.6v-19c0-2.6,0.8-6.8,1.7-9.3
		l1.3-3.5h-1.8c-2.4,0-4.4-2-4.4-4.4s2-4.4,4.4-4.4h5.3l3.8-9.9c0.9-2.5,3.8-5.1,6.3-5.8c0,0,6.6-1.9,20.2-1.9S70.3,20,70.3,20
		c2.5,0.7,5.4,3.3,6.3,5.8l3.8,9.9h5.3c2.4,0,4.4,2,4.4,4.4c0,2.5-2,4.4-4.4,4.4L85.6,44.4z M55,31c0,2.8-2.2,5-5,5s-5-2.2-5-5
		c0-2.8,2.2-5,5-5S55,28.2,55,31L55,31z M34.5,27.1c-2.8,0-5,2.2-5,5s2.2,5,5,5s5-2.2,5-5C39.6,29.3,37.3,27.1,34.5,27.1L34.5,27.1z
		 M28.4,55.2c0-2.4-2-4.4-4.4-4.4s-4.4,2-4.4,4.4s2,4.4,4.4,4.4C26.4,59.6,28.4,57.7,28.4,55.2z M64.9,57.6c0,0-7.5,3.4-14.9,3.4
		s-14.9-3.4-14.9-3.4c-2.6-1.2-3.1-0.4-1.2,1.6c0,0,7.6,7.9,16,7.9c8.5,0,16-7.9,16-7.9C67.9,57.1,67.4,56.4,64.9,57.6L64.9,57.6z
		 M72.2,42.6c0.9-0.2,1.7-0.3,2.6-0.5c0.9-0.2,1.3-0.9,1-1.7c-1.5-3.8-3-8.2-4.5-12.9c-0.3-1-1.3-1.9-2.1-2
		c-12.8-1.9-25.7-1.9-38.5,0c-0.9,0.1-1.8,1.1-2.1,2c-1.5,4.7-3,9.1-4.5,12.9c-0.3,0.8,0.2,1.5,1,1.7c0.9,0.2,1.7,0.3,2.6,0.5
		c0.4-2,2.1-4.1,3.9-4.3c1.9-0.3,3.8-0.3,5.8,0c1.8,0.3,3.5,2.4,3.9,4.4c0.1,0.5,0.2,1.1,0.3,1.6c0.4,0,0.8,0,1.2,0.1
		c0.2-0.9,0.3-1.9,0.5-2.8c0.4-2,2.1-4.1,3.9-4.4c1.9-0.3,3.8-0.3,5.8,0c1.8,0.3,3.5,2.4,3.9,4.4c0.2,0.9,0.3,1.9,0.5,2.8
		c0.4,0,0.8,0,1.2-0.1c0.1-0.5,0.2-1.1,0.3-1.6c0.4-2,2.1-4.1,3.9-4.4c1.9-0.3,3.8-0.3,5.8,0c1.5,0.3,3.2,2.4,3.6,4.3L72.2,42.6z
		 M80.4,55.2c0-2.4-2-4.4-4.4-4.4s-4.4,2-4.4,4.4s2,4.4,4.4,4.4C78.4,59.6,80.4,57.7,80.4,55.2z M65.5,27.1c-2.8,0-5,2.2-5,5
		s2.2,5,5,5c2.8,0,5-2.2,5-5C70.5,29.3,68.2,27.1,65.5,27.1L65.5,27.1z"/>
</g>
</svg>
